<svg xmlns="http://www.w3.org/2000/svg" width="35.35" height="28.71" viewBox="0 0 35.35 28.71">
  <defs>
    <style>
      .cls-1 {
        fill: #0093ff;
      }
    </style>
  </defs>
  <path id="Icon_awesome-twitter" data-name="Icon awesome-twitter" class="cls-1" d="M31.716,10.536c.022.314.022.628.022.942,0,9.578-7.29,20.613-20.613,20.613A20.474,20.474,0,0,1,0,28.839a14.988,14.988,0,0,0,1.75.09,14.51,14.51,0,0,0,8.995-3.1A7.258,7.258,0,0,1,3.97,20.809a9.137,9.137,0,0,0,1.368.112,7.663,7.663,0,0,0,1.907-.247,7.246,7.246,0,0,1-5.81-7.11v-.09a7.3,7.3,0,0,0,3.275.92A7.256,7.256,0,0,1,2.467,4.7a20.594,20.594,0,0,0,14.939,7.581,8.179,8.179,0,0,1-.179-1.66A7.252,7.252,0,0,1,29.765,5.669a14.264,14.264,0,0,0,4.6-1.75,7.225,7.225,0,0,1-3.185,3.993A14.524,14.524,0,0,0,35.35,6.79a15.574,15.574,0,0,1-3.634,3.746Z" transform="translate(0 -3.381)"/>
</svg>
