<svg xmlns="http://www.w3.org/2000/svg" width="418.862" height="420.876" viewBox="0 0 418.862 420.876">
  <g id="WhatsApp_Logo" data-name="WhatsApp Logo" transform="translate(-430.791 -325.415)">
    <path id="WA_Logo" data-name="WA Logo" d="M460.378,638.219A208.166,208.166,0,0,1,432.54,533.956c.045-114.989,93.6-208.541,208.556-208.541A208.592,208.592,0,0,1,849.653,534.122C849.606,649.113,756.04,742.674,641.1,742.674h-.086a208.373,208.373,0,0,1-99.664-25.384l-110.558,29ZM552.8,683.29a173.094,173.094,0,0,0,88.227,24.162h.07c95.542,0,173.3-77.764,173.342-173.344a173.368,173.368,0,0,0-173.272-173.47c-95.615,0-173.377,77.756-173.416,173.33a172.93,172.93,0,0,0,26.5,92.25l4.121,6.558-17.511,63.966,65.607-17.21Zm122.332-52.083a299.481,299.481,0,0,1-29.707-10.975c-52.275-22.574-86.415-75.208-89.021-78.686s-21.279-28.256-21.279-53.907,13.462-38.255,18.239-43.473a19.144,19.144,0,0,1,13.9-6.521c3.473,0,6.951.032,9.987.184.376.019.768.016,1.173.014,3.036-.017,6.819-.033,10.552,8.93,4.343,10.435,14.765,36.086,16.068,38.695s2.171,5.651.434,9.13-2.606,5.65-5.211,8.693-5.472,6.794-7.817,9.129c-2.607,2.6-5.324,5.42-2.283,10.635s13.5,22.282,28.989,36.1c19.9,17.754,36.695,23.256,41.907,25.865s8.25,2.172,11.289-1.3,13.028-15.217,16.5-20.434,6.948-4.346,11.723-2.608,30.4,14.346,35.609,16.954,8.685,3.914,9.986,6.088,1.3,12.606-3.038,24.781-25.162,23.281-35.174,24.777a85.18,85.18,0,0,1-12.648,1A66.115,66.115,0,0,1,675.132,631.207Z" fill="#455a64"/>
  </g>
</svg>
